<svg width="512" height="512" viewBox="0 0 512 512" fill="none" xmlns="http://www.w3.org/2000/svg">
<path d="M443.004 0H68.9955C30.8924 0 0.00244141 30.8887 0.00244141 68.993V443.004C0.00244141 481.109 30.8912 511.997 68.9955 511.997H253.455L253.769 329.037H206.236C200.059 329.037 195.045 324.042 195.022 317.865L194.794 258.889C194.77 252.678 199.799 247.631 206.01 247.631H253.456V190.645C253.456 124.514 293.845 88.5055 352.838 88.5055H401.247C407.44 88.5055 412.463 93.5267 412.463 99.7214V149.45C412.463 155.642 407.444 160.662 401.253 160.666L371.545 160.68C339.463 160.68 333.251 175.925 333.251 198.298V247.632H403.747C410.464 247.632 415.675 253.498 414.884 260.168L407.894 319.144C407.225 324.788 402.439 329.04 396.756 329.04H333.565L333.251 512H443.007C481.11 512 511.999 481.111 511.999 443.008V68.993C511.997 30.8887 481.109 0 443.004 0Z" fill="#475993"/>
</svg>
